HIERARCHY
ROOT Hips
{
	OFFSET 0.00000 0.00000 0.00000
	CHANNELS 6 Xposition Yposition Zposition Zrotation Yrotation Xrotation 
	JOINT LHipJoint
	{
		OFFSET 0 0 0
		CHANNELS 3 Zrotation Yrotation Xrotation
		JOINT LeftUpLeg
		{
			OFFSET 1.39187 -1.60231 0.69152
			CHANNELS 3 Zrotation Yrotation Xrotation
			JOINT LeftLeg
			{
				OFFSET 2.43314 -6.68499 0.00000
				CHANNELS 3 Zrotation Yrotation Xrotation
				JOINT LeftFoot
				{
					OFFSET 2.32059 -6.37578 0.00000
					CHANNELS 3 Zrotation Yrotation Xrotation
					JOINT LeftToeBase
					{
						OFFSET 0.23021 -0.63250 1.71305
						CHANNELS 3 Zrotation Yrotation Xrotation
						End Site
						{
							OFFSET 0.00000 -0.00000 0.91647
						}
					}
				}
			}
		}
	}
	JOINT RHipJoint
	{
		OFFSET 0 0 0
		CHANNELS 3 Zrotation Yrotation Xrotation
		JOINT RightUpLeg
		{
			OFFSET -1.19407 -1.60231 0.69152
			CHANNELS 3 Zrotation Yrotation Xrotation
			JOINT RightLeg
			{
				OFFSET -2.44411 -6.71513 0.00000
				CHANNELS 3 Zrotation Yrotation Xrotation
				JOINT RightFoot
				{
					OFFSET -2.31924 -6.37207 0.00000
					CHANNELS 3 Zrotation Yrotation Xrotation
					JOINT RightToeBase
					{
						OFFSET -0.19473 -0.53502 1.87724
						CHANNELS 3 Zrotation Yrotation Xrotation
						End Site
						{
							OFFSET -0.00000 -0.00000 0.98293
						}
					}
				}
			}
		}
	}
	JOINT LowerBack
	{
		OFFSET 0 0 0
		CHANNELS 3 Zrotation Yrotation Xrotation
		JOINT Spine
		{
			OFFSET -0.01120 1.87307 0.09613
			CHANNELS 3 Zrotation Yrotation Xrotation
			JOINT Spine1
			{
				OFFSET 0.01099 1.87818 0.04834
				CHANNELS 3 Zrotation Yrotation Xrotation
				JOINT Neck
				{
					OFFSET 0 0 0
					CHANNELS 3 Zrotation Yrotation Xrotation
					JOINT Neck1
					{
						OFFSET 0.01702 1.40324 -0.12579
						CHANNELS 3 Zrotation Yrotation Xrotation
						JOINT Head
						{
							OFFSET -0.04239 1.38587 -0.01614
							CHANNELS 3 Zrotation Yrotation Xrotation
							End Site
							{
								OFFSET -0.02510 1.47031 -0.00154
							}
						}
					}
				}
				JOINT LeftShoulder
				{
					OFFSET 0 0 0
					CHANNELS 3 Zrotation Yrotation Xrotation
					JOINT LeftArm
					{
						OFFSET 2.95699 0.62343 0.11653
						CHANNELS 3 Zrotation Yrotation Xrotation
						JOINT LeftForeArm
						{
							OFFSET 4.68382 -0.00000 -0.00000
							CHANNELS 3 Zrotation Yrotation Xrotation
							JOINT LeftHand
							{
								OFFSET 2.98124 -0.00000 -0.00000
								CHANNELS 3 Zrotation Yrotation Xrotation
								JOINT LeftFingerBase
								{
									OFFSET 0 0 0
									CHANNELS 3 Zrotation Yrotation Xrotation
									JOINT LeftHandIndex1
									{
										OFFSET 0.70759 -0.00000 0.00000
										CHANNELS 3 Zrotation Yrotation Xrotation
										End Site
										{
											OFFSET 0.57048 -0.00000 0.00000
										}
									}
								}
								JOINT LThumb
								{
									OFFSET 0 0 0
									CHANNELS 3 Zrotation Yrotation Xrotation
									End Site
									{
										OFFSET 0.57919 -0.00000 0.57919
									}
								}
							}
						}
					}
				}
				JOINT RightShoulder
				{
					OFFSET 0 0 0
					CHANNELS 3 Zrotation Yrotation Xrotation
					JOINT RightArm
					{
						OFFSET -2.99027 0.88714 -0.02793
						CHANNELS 3 Zrotation Yrotation Xrotation
						JOINT RightForeArm
						{
							OFFSET -4.75876 -0.00000 -0.00000
							CHANNELS 3 Zrotation Yrotation Xrotation
							JOINT RightHand
							{
								OFFSET -2.93293 -0.00000 -0.00000
								CHANNELS 3 Zrotation Yrotation Xrotation
								JOINT RightFingerBase
								{
									OFFSET 0 0 0
									CHANNELS 3 Zrotation Yrotation Xrotation
									JOINT RightHandIndex1
									{
										OFFSET -0.83175 -0.00000 0.00000
										CHANNELS 3 Zrotation Yrotation Xrotation
										End Site
										{
											OFFSET -0.67058 -0.00000 0.00000
										}
									}
								}
								JOINT RThumb
								{
									OFFSET 0 0 0
									CHANNELS 3 Zrotation Yrotation Xrotation
									End Site
									{
										OFFSET -0.68082 -0.00000 0.68082
									}
								}
							}
						}
					}
				}
			}
		}
	}
}
MOTION
Frames: 14
Frame Time: 0.0384615
0.00 0.00 0.00 -159.3240 -81.1743 -172.5260 0.0000 0.0000 0.0000 -26.6613 -10.7984 -78.3246 4.3630 12.6283 37.9927 -0.0742 4.9821 -0.4992 2.4086 9.6697 27.9136 0.0000 0.0000 0.0000 26.0992 -2.1431 -60.1999 -18.0762 -19.9110 84.3672 -1.3028 -1.8762 -22.3146 -1.0989 6.6611 -18.7153 -2.0394 2.6554 12.7384 5.6421 2.9857 6.0623 6.6857 1.2148 -1.1703 -5.3258 1.9497 -8.8699 0.5853 1.6283 -24.4379 1.1216 0.5845 -6.0910 0.0000 0.0000 0.0000 -122.6965 -67.4492 62.6740 26.6605 -37.8535 -9.2900 -0.0000 0.0000 -22.8831 7.4549 50.9617 5.8034 -7.1250 0.0000 -0.0000 -62.2960 73.2955 -46.0098 0.0000 0.0000 0.0000 111.9149 48.3307 65.8493 -50.9000 53.3521 -26.8946 0.0000 -0.0000 -15.8494 -30.6434 -4.4183 2.6131 7.1250 -0.0000 -0.0000 -3.3193 -35.0962 -0.8085
0.00 0.00 0.00 -157.5090 -72.9592 -173.1690 0.0000 0.0000 0.0000 -13.9639 -9.0986 -77.0140 1.8357 8.5151 24.2899 0.7217 12.1816 16.2581 0.6308 5.0821 14.1429 0.0000 0.0000 0.0000 31.8686 6.9639 -59.3891 -14.2750 -19.1953 73.0426 -1.0371 -12.1550 -27.1426 -0.8691 5.9442 -16.6226 -1.3956 3.9572 11.8690 4.8277 4.6831 6.6038 5.2566 2.0379 -0.2425 -5.3700 2.8526 -7.8629 0.5734 2.8866 -24.1743 1.0775 1.2255 -6.2044 -0.0000 -0.0000 0.0000 -119.7545 -74.5005 54.8794 21.5834 -32.5030 -6.3605 -0.0000 0.0000 -22.6807 -5.8354 54.3876 -4.7496 -7.1250 0.0000 -0.0000 -79.3869 69.6969 -57.4290 -0.0000 -0.0000 0.0000 123.6240 54.0400 78.7817 -36.7479 46.0207 -16.0584 0.0000 -0.0000 -14.2465 -30.5463 -3.1465 1.8553 7.1250 -0.0000 -0.0000 -3.2225 -33.6193 -0.9005
0.00 0.00 0.00 -158.8810 -71.1869 -171.7030 0.0000 0.0000 0.0000 5.4970 -12.0717 -75.3186 1.3852 7.4469 21.0462 3.2236 16.0735 32.7486 0.1975 -2.8615 -7.8933 0.0000 0.0000 0.0000 34.1925 11.6984 -57.6580 -11.1853 -18.0246 63.3820 -0.7216 -16.7039 -29.4183 -0.0886 1.9193 -5.2828 -1.5778 4.0038 11.8233 4.3097 4.7188 6.6919 4.8144 2.0567 -0.1021 -5.8907 3.3326 -7.5587 0.3152 3.4429 -24.9432 1.0614 1.5460 -6.5370 0.0000 0.0000 0.0000 -121.6674 -81.0059 52.3190 16.2682 -25.8830 -3.7623 -0.0000 0.0000 -17.5892 -11.4100 48.7215 -8.6242 -7.1250 0.0000 -0.0000 -69.8787 65.9585 -43.6829 0.0000 0.0000 0.0000 135.0812 57.4158 89.4570 -27.6561 38.7977 -9.9075 0.0000 -0.0000 -11.2066 -30.4898 -2.6359 1.5511 7.1250 -0.0000 -0.0000 -3.1670 -33.0264 -0.9304
0.00 0.00 0.00 -163.6990 -73.0755 -167.2890 0.0000 0.0000 0.0000 9.2722 -15.3853 -77.9101 2.2425 9.3539 26.9086 2.1885 25.7559 30.1095 0.5715 4.8415 13.4569 0.0000 0.0000 0.0000 31.9679 13.8844 -60.6521 -11.1930 -18.0283 63.4069 -0.2044 -18.0172 -27.1811 -0.0013 -0.2363 0.6492 -2.1212 3.2326 12.4796 3.9021 3.6265 6.9558 4.8155 1.4979 -0.0780 -5.4889 3.4725 -7.4607 0.0118 3.4511 -26.2277 0.8985 1.4955 -6.9678 -0.0000 -0.0000 0.0000 -145.7620 -85.7002 72.2499 12.2718 -20.2110 -2.1953 -0.0000 0.0000 -10.0402 -14.3404 45.7177 -10.3715 -7.1250 0.0000 -0.0000 -66.5365 63.6986 -37.7503 -0.0000 -0.0000 0.0000 143.8204 58.7185 96.1329 -23.2057 34.3130 -7.2539 0.0000 -0.0000 -9.2009 -30.6775 -2.4027 1.4246 7.1250 -0.0000 -0.0000 -3.3146 -32.7606 -0.9952
0.00 0.00 0.00 -167.0310 -75.4155 -164.9150 0.0000 0.0000 0.0000 2.2327 -14.0266 -80.4775 3.2035 11.0174 32.3384 2.2955 12.1797 27.3439 0.0076 0.5621 1.5446 0.0000 0.0000 0.0000 30.8356 13.6649 -62.4847 -11.3913 -18.1213 64.0460 -0.1669 -18.0928 -26.9854 -0.1901 -2.8082 7.7453 -2.5157 2.4437 13.7312 4.0410 2.5103 7.1100 5.3107 0.9244 -0.4918 -5.5706 3.5502 -7.3102 0.2903 3.5904 -26.5352 0.9975 1.5434 -7.1064 0.0000 0.0000 0.0000 179.1930 -86.5805 103.6008 10.2267 -17.0935 -1.5409 -0.0000 0.0000 -4.8819 -12.3483 45.2166 -8.8321 -7.1250 0.0000 -0.0000 -64.1147 64.0305 -36.2615 0.0000 0.0000 0.0000 148.0912 58.5615 98.3060 -21.2046 32.0664 -6.1582 0.0000 -0.0000 -6.9428 -30.8293 -1.8416 1.0988 7.1250 -0.0000 -0.0000 -3.4229 -32.1121 -1.0814
0.00 0.00 0.00 -175.5420 -78.3101 -156.8760 0.0000 0.0000 0.0000 4.9493 -14.4691 -84.4662 9.4713 17.1016 57.7061 -0.0811 7.1769 2.8240 0.0027 0.3386 0.9305 0.0000 0.0000 0.0000 28.3828 15.4119 -66.7778 -10.5838 -17.7253 61.4223 0.6247 -19.8154 -22.4723 -0.9485 -6.2025 17.3730 -4.1488 2.5184 14.5493 4.0467 2.4369 6.8257 6.2466 0.8941 -1.2755 -5.8805 2.8713 -7.1217 1.3568 2.8646 -26.8319 1.4319 1.1496 -7.2299 -0.0000 -0.0000 0.0000 166.7893 -82.5062 101.0048 6.1935 -10.5845 -0.5743 -0.0000 -0.0000 17.0597 -12.9230 38.1559 -8.0683 -7.1250 0.0000 -0.0000 -54.1166 59.7564 -23.5053 -0.0000 -0.0000 0.0000 142.3013 60.1047 90.3035 -20.4913 31.2297 -5.7839 0.0000 -0.0000 -6.6091 -27.8784 -0.9990 0.5284 7.1250 -0.0000 -0.0000 -1.0439 -31.1090 -0.3545
0.00 0.00 0.00 -177.1210 -80.9637 -154.6790 0.0000 0.0000 0.0000 5.5817 -14.1421 -84.1679 15.2394 19.4477 75.9569 -0.0527 4.7531 -4.3523 0.0561 -1.5285 -4.2043 0.0000 0.0000 0.0000 29.6325 13.4752 -69.4898 -9.4576 -17.0934 57.6597 0.8285 -19.4035 -19.2207 -0.8004 -5.7102 15.9457 -4.4612 2.5948 14.4863 4.3115 2.5239 6.7596 6.6986 0.9390 -1.3445 -6.9119 1.9301 -6.2285 3.7062 1.9454 -28.3579 2.4565 0.5982 -7.8870 0.0000 -0.0000 0.0000 168.9911 -78.9348 100.9829 5.3876 -9.2370 -0.4355 -0.0000 -0.0000 20.1201 -8.0750 37.0083 -4.8812 -7.1250 0.0000 -0.0000 -48.4082 60.1706 -20.7176 0.0000 -0.0000 0.0000 131.7697 61.2428 81.2604 -24.2437 35.4209 -7.8473 0.0000 -0.0000 -9.5000 -25.9551 -1.4778 0.7192 7.1250 -0.0000 -0.0000 0.4967 -31.6230 0.1625
0.00 0.00 0.00 -172.8530 -85.3268 -158.1190 0.0000 0.0000 0.0000 -0.4965 -10.4738 -78.0932 21.0547 19.9733 93.0849 -0.0133 3.2956 -3.9493 0.1403 2.4141 6.6516 0.0000 0.0000 0.0000 33.6898 9.6973 -71.1152 -7.4476 -15.6975 50.5477 0.6921 -16.6258 -14.8240 -0.4203 -4.1612 11.5305 -4.5036 2.2937 14.1618 4.4110 2.1947 6.3495 6.8857 0.8134 -1.5598 -8.1637 0.5599 -5.3434 7.4728 0.8148 -29.1106 4.0480 -0.1378 -8.2048 -0.0000 -0.0000 0.0000 178.2923 -74.6384 100.8677 5.8842 -10.0689 -0.5188 -0.0000 -0.0000 16.7100 -2.4520 38.9791 -1.5429 -7.1250 0.0000 -0.0000 -45.7973 62.9897 -22.3510 -0.0000 -0.0000 0.0000 117.3267 59.7911 67.0699 -31.0516 41.7779 -12.1042 0.0000 -0.0000 -13.8081 -23.8221 -0.4233 0.1869 7.1250 -0.0000 -0.0000 2.1730 -30.4386 0.7731
0.00 0.00 0.00 0.8477 -71.5313 -332.0680 0.0000 0.0000 0.0000 -19.4317 -26.8409 -67.8195 17.0597 19.7914 81.3745 0.9676 13.6579 -28.0316 0.0018 -0.2777 -0.7630 0.0000 0.0000 0.0000 25.1488 4.2093 -81.1138 -0.6495 -5.1553 14.3519 -3.8844 -8.9377 35.8566 -0.1351 2.3688 -6.5261 -3.9471 -2.2150 14.3867 4.6016 -3.5129 5.6166 7.6522 -1.9504 -1.5598 -10.5090 -4.0194 -7.7121 17.5679 -3.4386 -30.3317 8.1835 -2.8504 -7.3452 -0.0000 -0.0000 0.0000 161.2809 -64.5166 122.3839 6.6227 -11.2966 -0.6557 -0.0000 -0.0000 24.3102 -2.6641 46.7198 -1.9402 -7.1250 0.0000 -0.0000 -59.1653 67.7783 -37.1041 -0.0000 -0.0000 0.0000 112.2007 57.5930 57.4128 -54.9541 54.8081 -30.1785 0.0000 -0.0000 -18.8457 -30.5108 -7.7490 4.5430 7.1250 -0.0000 -0.0000 -3.1936 -38.9367 -0.4776
0.00 0.00 0.00 -11.6056 -71.4258 -309.5030 0.0000 0.0000 0.0000 -14.2462 -24.0004 -86.1357 15.3021 19.4624 76.1451 0.6251 7.7795 -19.7439 0.1561 2.5458 7.0166 0.0000 0.0000 0.0000 -10.8738 12.9575 -80.2087 -1.9254 -8.7090 24.8891 -0.4538 -19.3256 17.2098 -0.1352 2.3699 -6.5292 -3.3355 -1.4199 15.3038 5.4211 -2.1999 2.7019 8.1657 -1.0458 -5.3517 -10.9624 -4.2066 -9.5879 19.3205 -3.3269 -33.0316 9.1304 -3.0621 -7.9045 -0.0000 -0.0000 0.0000 151.6865 -66.5649 117.9634 5.0323 -8.6389 -0.3803 -0.0000 -0.0000 46.6819 8.7130 38.1381 5.4065 -7.1250 0.0000 -0.0000 -33.6526 65.4246 -17.4911 -0.0000 -0.0000 0.0000 125.9592 60.6008 70.0373 -43.5790 50.0530 -21.1436 0.0000 -0.0000 -16.5465 -31.2081 -6.4803 3.9114 7.1250 -0.0000 -0.0000 -3.8063 -37.5204 -0.7019
0.00 0.00 0.00 -27.0661 -73.0244 -288.0340 0.0000 0.0000 0.0000 -10.8640 -21.5604 -94.8014 13.1151 18.8233 69.4826 0.4315 6.0800 -16.1198 0.6882 5.3035 14.7763 0.0000 0.0000 0.0000 -14.8552 13.0656 -86.7009 -8.0443 -16.1517 52.7221 0.7732 -16.6817 0.8205 -0.3864 3.9920 -11.0541 -2.9032 0.0628 17.7475 5.6162 -0.2060 2.7334 7.8341 -0.0346 -6.9771 -10.5929 -3.6008 -10.1533 18.3719 -2.8207 -37.8246 9.2751 -3.1007 -9.8222 0.0000 0.0000 0.0000 147.5496 -65.5862 122.1847 5.2608 -9.0238 -0.4154 -0.0000 -0.0000 48.9537 8.5544 37.9390 5.2839 -7.1250 0.0000 -0.0000 -33.5502 65.2186 -17.2749 0.0000 0.0000 0.0000 130.7405 63.9408 75.8901 -39.3991 47.7098 -17.9935 0.0000 -0.0000 -15.9504 -32.6414 -3.0368 1.9436 7.1250 -0.0000 -0.0000 -4.9345 -33.5550 -1.3891
0.00 0.00 0.00 -33.9308 -75.0715 -278.6300 0.0000 0.0000 0.0000 -10.5695 -21.5649 -96.1666 11.2290 18.0453 63.5231 0.4248 6.5851 -16.4662 0.9217 6.1164 17.1226 0.0000 0.0000 0.0000 -14.5128 12.3767 -87.4826 -13.6849 -19.0157 71.2399 1.2316 -19.4080 -4.1968 -0.1056 2.0953 -5.7690 -3.2423 0.3383 17.9387 5.1411 0.0816 2.3617 7.4521 0.1434 -7.5299 -11.2355 -2.7021 -10.9086 17.4564 -1.6497 -36.8981 8.9079 -2.3039 -9.5687 -0.0000 -0.0000 0.0000 150.2827 -64.3063 119.4876 5.2521 -9.0092 -0.4141 -0.0000 -0.0000 49.7439 11.0749 38.0721 6.8824 -7.1250 0.0000 -0.0000 -31.0720 66.0467 -16.4663 -0.0000 -0.0000 0.0000 127.8064 63.7701 72.0518 -40.0773 48.1156 -18.4967 0.0000 -0.0000 -16.8738 -32.8251 -0.0432 0.0278 7.1250 -0.0000 -0.0000 -4.9336 -30.0127 -1.8103
0.00 0.00 0.00 -78.3450 -81.8998 -232.9090 0.0000 0.0000 0.0000 -13.4563 -20.4641 -95.0583 6.5931 14.9794 47.3179 -0.3839 11.7602 -9.0474 2.1250 9.1218 26.1771 0.0000 0.0000 0.0000 8.8674 11.1511 -72.2951 -18.5794 -19.9515 85.8433 0.2221 -9.8160 -9.1490 -0.8561 5.9005 -16.4959 -3.5642 2.1959 16.5069 3.6236 2.3674 2.4642 5.4046 1.2161 -6.9209 -9.9349 -1.0016 -14.0125 10.4217 -0.6941 -33.0111 5.5990 -1.1702 -8.0232 0.0000 -0.0000 0.0000 162.3483 -64.9453 130.2252 7.7949 -13.2199 -0.9046 -0.0000 -0.0000 26.2891 17.7877 41.9892 12.1137 -7.1250 0.0000 -0.0000 -29.8144 71.3804 -19.2516 0.0000 -0.0000 0.0000 117.2481 63.5416 62.1638 -41.3594 48.8550 -19.4568 0.0000 -0.0000 -19.4739 -30.3276 4.5243 -2.6421 7.1250 -0.0000 -0.0000 -2.7500 -24.7420 -1.3481
0.00 0.00 0.00 -129.2870 -81.8456 -194.0530 0.0000 0.0000 0.0000 -30.1369 -15.1240 -92.8453 3.4826 11.4380 33.7718 0.1764 1.9991 7.4905 3.4521 11.3932 33.6177 0.0000 0.0000 0.0000 26.3193 19.7911 -76.1251 -18.3588 -19.9353 85.1966 -0.8769 -12.5393 -26.2884 -0.3389 3.7411 -10.3493 -2.2936 3.5318 15.8956 5.3122 4.3025 3.7497 6.1016 2.0419 -5.4868 -7.0322 1.5575 -6.3572 2.3167 0.9726 -30.4009 2.0920 0.2226 -8.5490 0.0000 -0.0000 0.0000 160.2004 -72.0140 135.7806 10.0149 -16.7629 -1.4793 -0.0000 -0.0000 7.7414 11.9707 41.5474 8.0045 -7.1250 0.0000 -0.0000 -35.4640 69.1080 -21.4353 0.0000 -0.0000 0.0000 128.0649 64.5142 74.7983 -35.9603 45.4858 -15.4942 0.0000 -0.0000 -15.6842 -27.7857 1.2274 -0.6467 7.1250 -0.0000 -0.0000 -0.9440 -28.5919 -0.3772
